# xmcd
#
# Track frame offsets:
# 150
# 20407
# 31735
# 43547
# 62677
# 69377
# 76740
# 91802
# 106555
# 119012
# 127782
# 160882
# 177652
# 209593
#
# Disc length: 3192 seconds
#
#
# Revision: 2
# Processed by: cddbd v1.4PL0 Copyright (c) Steve Scherf et al.
# Submitted via: FreeRIP 2.30 
#
DISCID=ad0c760e
DTITLE=Willie Nelson - Rainbow Connection
DYEAR=2001
DGENRE=Country
TTITLE0=Rainbow Connection
TTITLE1=I'm Looking Over A Four-Leaf Clover
TTITLE2=Ol' Blue
TTITLE3=Wise Old Me
TTITLE4=Won't You Ride In My Little Red Wagon
TTITLE5=Playmate
TTITLE6=I'm My Own Grandpa
TTITLE7=Rock Me To Sleep
TTITLE8=Playin' Dominoes And Shootin Dice
TTITLE9=Wouldn't Have It Any Other Way
TTITLE10=Outskirts Of Town
TTITLE11=Just Dropped In (To See What Condition My Condition Was In)
TTITLE12=The Thirty-Third Of August
TTITLE13=Data Track
EXTD=YEAR: 2001 ID3G:   2
EXTT0=
EXTT1=
EXTT2=
EXTT3=
EXTT4=
EXTT5=
EXTT6=
EXTT7=
EXTT8=
EXTT9=
EXTT10=
EXTT11=
EXTT12=
EXTT13=
PLAYORDER=
